<svg width="17" height="16" viewBox="0 0 17 16" fill="none" xmlns="http://www.w3.org/2000/svg">
<path fill-rule="evenodd" clip-rule="evenodd" d="M15.8448 15.1508C15.4542 15.5413 14.8211 15.5413 14.4305 15.1508L1.28784 2.0081C0.897314 1.61758 0.897313 0.984413 1.28784 0.593888V0.593888C1.67836 0.203363 2.31153 0.203362 2.70205 0.593885L15.8448 13.7365C16.2353 14.1271 16.2353 14.7602 15.8448 15.1508V15.1508Z" fill="black"/>
<path fill-rule="evenodd" clip-rule="evenodd" d="M1.28767 15.1508C1.6782 15.5413 2.31136 15.5413 2.70189 15.1508L15.8446 2.0081C16.2351 1.61758 16.2351 0.984413 15.8446 0.593888V0.593888C15.4541 0.203363 14.8209 0.203362 14.4304 0.593886L1.28767 13.7365C0.89715 14.1271 0.897148 14.7602 1.28767 15.1508V15.1508Z" fill="black"/>
</svg>
